<?xml version="1.0" standalone="no"?>
<!DOCTYPE svg PUBLIC "-//W3C//DTD SVG 1.1//EN"
"http://www.w3.org/Graphics/SVG/1.1/DTD/svg11.dtd">
<svg width="800" height="600" version="1.1" xmlns="http://www.w3.org/2000/svg">
<rect x="105" y="29" width="74" height="6" fill="rgb(255,0,0)" stroke="rgb(255,255,255)" storke-width="5" />
<rect x="103" y="30" width="6" height="49" fill="rgb(255,0,0)" stroke="rgb(255,255,255)" storke-width="5" />
<rect x="104" y="79" width="73" height="5" fill="rgb(255,0,0)" stroke="rgb(255,255,255)" storke-width="5" />
<rect x="189" y="31" width="7" height="55" fill="rgb(255,0,0)" stroke="rgb(255,255,255)" storke-width="5" />
<rect x="193" y="27" width="49" height="5" fill="rgb(255,0,0)" stroke="rgb(255,255,255)" storke-width="5" />
<rect x="239" y="32" width="4" height="23" fill="rgb(255,0,0)" stroke="rgb(255,255,255)" storke-width="5" />
<rect x="196" y="52" width="43" height="4" fill="rgb(255,0,0)" stroke="rgb(255,255,255)" storke-width="5" />
<rect x="252" y="32" width="5" height="24" fill="rgb(255,0,0)" stroke="rgb(255,255,255)" storke-width="5" />
<rect x="256" y="53" width="30" height="3" fill="rgb(255,0,0)" stroke="rgb(255,255,255)" storke-width="5" />
<rect x="282" y="32" width="6" height="19" fill="rgb(255,0,0)" stroke="rgb(255,255,255)" storke-width="5" />
<rect x="283" y="55" width="4" height="30" fill="rgb(255,0,0)" stroke="rgb(255,255,255)" storke-width="5" />
<rect x="305" y="34" width="7" height="57" fill="rgb(255,0,0)" stroke="rgb(255,255,255)" storke-width="5" />
<rect x="330" y="38" width="10" height="57" fill="rgb(255,0,0)" stroke="rgb(255,255,255)" storke-width="5" />
<rect x="383" y="49" width="18" height="5" fill="rgb(255,0,0)" stroke="rgb(255,255,255)" storke-width="5" />
<circle cx="169" cy="283" r="164.210231" fill="rgb(0,255,0)" stroke="rgb(0,0,255)" stroke-width="5" />
<rect x="422" y="313" width="237" height="186" fill="rgb(0,0,0)" stroke="rgb(255,0,0)" storke-width="5" />
<circle cx="500" cy="229" r="143.694120" fill="rgb(0,0,0)" stroke="rgb(0,0,0)" stroke-width="5" />
<rect x="118" y="464" width="513" height="131" fill="rgb(0,0,255)" stroke="rgb(0,0,0)" storke-width="5" />
<rect x="203" y="310" width="162" height="141" fill="rgb(255,255,255)" stroke="rgb(0,0,0)" storke-width="5" />
<rect x="373" y="359" width="362" height="83" fill="rgb(255,255,255)" stroke="rgb(255,255,255)" storke-width="5" />
</svg>
